<?xml version="1.0" encoding="UTF-8"?>
<!DOCTYPE svg PUBLIC "-//W3C//DTD SVG 1.1//EN" "http://www.w3.org/Graphics/SVG/1.1/DTD/svg11.dtd">
<svg xmlns="http://www.w3.org/2000/svg" version="1.1" width="474px" height="224px" style="shape-rendering:geometricPrecision; text-rendering:geometricPrecision; image-rendering:optimizeQuality; fill-rule:evenodd; clip-rule:evenodd" xmlns:xlink="http://www.w3.org/1999/xlink">
<g><path style="opacity:1" fill="#fdfdfd" d="M -0.5,-0.5 C 157.5,-0.5 315.5,-0.5 473.5,-0.5C 473.5,74.1667 473.5,148.833 473.5,223.5C 397.5,223.5 321.5,223.5 245.5,223.5C 245.64,221.876 244.973,220.71 243.5,220C 228.111,215.096 213.111,209.43 198.5,203C 183.833,195.333 169.167,187.667 154.5,180C 148.981,177.66 143.314,175.827 137.5,174.5C 135.958,173.859 134.624,172.859 133.5,171.5C 134.63,170.378 135.297,169.044 135.5,167.5C 144.21,150.737 151.876,133.404 158.5,115.5C 157.694,111.2 155.361,110.367 151.5,113C 145.936,118.395 140.603,123.895 135.5,129.5C 134.5,129.5 133.5,129.5 132.5,129.5C 132.5,127.5 132.5,125.5 132.5,123.5C 133.924,121.485 134.59,119.152 134.5,116.5C 134.928,113.215 135.928,110.215 137.5,107.5C 138.924,105.485 139.59,103.152 139.5,100.5C 139.5,98.1667 139.5,95.8333 139.5,93.5C 137.833,93.5 136.167,93.5 134.5,93.5C 134.338,91.4727 134.505,89.4727 135,87.5C 137.144,82.2521 138.977,76.9187 140.5,71.5C 142.066,69.0444 143.733,66.5444 145.5,64C 144.663,62.9887 144.33,61.8221 144.5,60.5C 145.038,58.8828 145.371,57.2161 145.5,55.5C 146.629,53.3718 146.796,51.0385 146,48.5C 144.384,47.1991 142.884,47.1991 141.5,48.5C 138.185,50.8081 134.851,53.1414 131.5,55.5C 130.666,49.6696 130.666,43.6696 131.5,37.5C 131.337,35.1432 131.503,32.8098 132,30.5C 135.381,34.4851 138.714,34.4851 142,30.5C 144.312,21.6385 141.479,19.3052 133.5,23.5C 132.833,21.5 132.167,19.5 131.5,17.5C 131.873,12.4517 130.706,7.785 128,3.5C 126.556,1.84464 124.722,1.17798 122.5,1.5C 122.275,6.24805 122.775,10.9147 124,15.5C 125.818,19.1356 127.651,22.8022 129.5,26.5C 123.757,31.1402 118.257,36.1402 113,41.5C 107.382,49.4533 101.382,57.12 95,64.5C 76.8655,91.4322 61.8655,120.099 50,150.5C 44.0874,167.483 39.4207,184.816 36,202.5C 28.8032,187.683 25.6365,172.016 26.5,155.5C 27.9238,153.485 28.5905,151.152 28.5,148.5C 28.719,147.325 28.3857,146.325 27.5,145.5C 26.2393,147.453 25.0726,149.453 24,151.5C 22.2902,171.245 25.9569,189.912 35,207.5C 35.3333,210.833 35.6667,214.167 36,217.5C 36.414,217.957 36.914,218.291 37.5,218.5C 38.8074,201.625 42.1408,185.292 47.5,169.5C 48.9238,167.485 49.5905,165.152 49.5,162.5C 53.0868,149.913 57.5868,137.579 63,125.5C 77.3356,96.1379 94.6689,68.8046 115,43.5C 118.742,39.2525 122.908,35.5859 127.5,32.5C 128.404,33.209 128.737,34.209 128.5,35.5C 127.576,40.4565 126.909,45.4565 126.5,50.5C 126.453,53.2948 126.953,55.9615 128,58.5C 129.388,59.5536 130.888,59.7203 132.5,59C 135.531,56.4919 138.531,53.9919 141.5,51.5C 142.451,52.9187 142.784,54.5853 142.5,56.5C 139.709,67.0383 136.209,77.3716 132,87.5C 131.199,90.367 131.366,93.0336 132.5,95.5C 134.219,96.0221 135.552,97.0221 136.5,98.5C 134.221,106.166 132.054,113.833 130,121.5C 129.211,125.091 129.378,128.591 130.5,132C 133.303,132.755 135.97,132.422 138.5,131C 143.133,125.365 148.133,120.032 153.5,115C 154.6,114.568 155.267,115.068 155.5,116.5C 148.727,133.382 141.394,150.048 133.5,166.5C 132.405,168.358 131.071,170.025 129.5,171.5C 114.514,169.297 99.5138,168.963 84.5,170.5C 78.4203,171.208 73.087,173.542 68.5,177.5C 67.1056,180.908 67.2722,184.241 69,187.5C 78.7892,198.739 90.6225,201.572 104.5,196C 113.712,192.075 121.379,186.242 127.5,178.5C 128.833,177.833 129.833,176.833 130.5,175.5C 138.122,176.738 145.455,178.905 152.5,182C 168.531,190.348 184.531,198.682 200.5,207C 214.261,212.417 227.928,217.917 241.5,223.5C 160.833,223.5 80.1667,223.5 -0.5,223.5C -0.5,148.833 -0.5,74.1667 -0.5,-0.5 Z"/></g>
<g><path style="opacity:1" fill="#1e1e1e" d="M 131.5,17.5 C 131.336,20.1873 131.503,22.854 132,25.5C 132.717,24.9558 133.217,24.2891 133.5,23.5C 141.479,19.3052 144.312,21.6385 142,30.5C 138.714,34.4851 135.381,34.4851 132,30.5C 131.503,32.8098 131.337,35.1432 131.5,37.5C 129.494,43.6182 129.16,49.9516 130.5,56.5C 131.107,56.3764 131.44,56.0431 131.5,55.5C 134.851,53.1414 138.185,50.8081 141.5,48.5C 142.822,48.33 143.989,48.6634 145,49.5C 145.495,51.4727 145.662,53.4727 145.5,55.5C 145.371,57.2161 145.038,58.8828 144.5,60.5C 142.796,63.9385 141.462,67.6052 140.5,71.5C 138.977,76.9187 137.144,82.2521 135,87.5C 134.505,89.4727 134.338,91.4727 134.5,93.5C 136.167,93.5 137.833,93.5 139.5,93.5C 139.5,95.8333 139.5,98.1667 139.5,100.5C 138.076,102.515 137.41,104.848 137.5,107.5C 135.928,110.215 134.928,113.215 134.5,116.5C 133.076,118.515 132.41,120.848 132.5,123.5C 131.532,125.607 131.198,127.941 131.5,130.5C 133.099,130.768 134.432,130.434 135.5,129.5C 140.603,123.895 145.936,118.395 151.5,113C 155.361,110.367 157.694,111.2 158.5,115.5C 151.876,133.404 144.21,150.737 135.5,167.5C 134.833,167.167 134.167,166.833 133.5,166.5C 141.394,150.048 148.727,133.382 155.5,116.5C 155.267,115.068 154.6,114.568 153.5,115C 148.133,120.032 143.133,125.365 138.5,131C 135.97,132.422 133.303,132.755 130.5,132C 129.378,128.591 129.211,125.091 130,121.5C 132.054,113.833 134.221,106.166 136.5,98.5C 137.404,97.791 137.737,96.791 137.5,95.5C 135.833,95.5 134.167,95.5 132.5,95.5C 131.366,93.0336 131.199,90.367 132,87.5C 136.209,77.3716 139.709,67.0383 142.5,56.5C 143.793,54.6365 143.793,52.6365 142.5,50.5C 141.893,50.6236 141.56,50.9569 141.5,51.5C 138.531,53.9919 135.531,56.4919 132.5,59C 130.888,59.7203 129.388,59.5536 128,58.5C 126.953,55.9615 126.453,53.2948 126.5,50.5C 126.909,45.4565 127.576,40.4565 128.5,35.5C 129.613,34.0536 129.78,32.3869 129,30.5C 128.283,31.0442 127.783,31.7109 127.5,32.5C 122.908,35.5859 118.742,39.2525 115,43.5C 94.6689,68.8046 77.3356,96.1379 63,125.5C 57.5868,137.579 53.0868,149.913 49.5,162.5C 48.0762,164.515 47.4095,166.848 47.5,169.5C 42.1408,185.292 38.8074,201.625 37.5,218.5C 36.914,218.291 36.414,217.957 36,217.5C 35.6667,214.167 35.3333,210.833 35,207.5C 25.9569,189.912 22.2902,171.245 24,151.5C 25.0726,149.453 26.2393,147.453 27.5,145.5C 28.3857,146.325 28.719,147.325 28.5,148.5C 27.0762,150.515 26.4095,152.848 26.5,155.5C 25.6365,172.016 28.8032,187.683 36,202.5C 39.4207,184.816 44.0874,167.483 50,150.5C 61.8655,120.099 76.8655,91.4322 95,64.5C 101.382,57.12 107.382,49.4533 113,41.5C 118.257,36.1402 123.757,31.1402 129.5,26.5C 127.651,22.8022 125.818,19.1356 124,15.5C 122.775,10.9147 122.275,6.24805 122.5,1.5C 124.722,1.17798 126.556,1.84464 128,3.5C 130.706,7.785 131.873,12.4517 131.5,17.5 Z"/></g>
<g><path style="opacity:1" fill="#bcbcbc" d="M 124.5,4.5 C 128.087,7.6952 129.254,11.6952 128,16.5C 125.944,12.7323 124.778,8.73229 124.5,4.5 Z"/></g>
<g><path style="opacity:1" fill="#989898" d="M 131.5,17.5 C 132.167,19.5 132.833,21.5 133.5,23.5C 133.217,24.2891 132.717,24.9558 132,25.5C 131.503,22.854 131.336,20.1873 131.5,17.5 Z"/></g>
<g><path style="opacity:1" fill="#e4e4e4" d="M 137.5,23.5 C 139.344,25.2789 140.01,27.6122 139.5,30.5C 136.722,30.9783 134.722,29.9783 133.5,27.5C 135.188,26.4787 136.521,25.1454 137.5,23.5 Z"/></g>
<g><path style="opacity:1" fill="#757575" d="M 128.5,35.5 C 128.737,34.209 128.404,33.209 127.5,32.5C 127.783,31.7109 128.283,31.0442 129,30.5C 129.78,32.3869 129.613,34.0536 128.5,35.5 Z"/></g>
<g><path style="opacity:1" fill="#838383" d="M 141.5,48.5 C 142.884,47.1991 144.384,47.1991 146,48.5C 146.796,51.0385 146.629,53.3718 145.5,55.5C 145.662,53.4727 145.495,51.4727 145,49.5C 143.989,48.6634 142.822,48.33 141.5,48.5 Z"/></g>
<g><path style="opacity:1" fill="#838383" d="M 141.5,51.5 C 141.56,50.9569 141.893,50.6236 142.5,50.5C 143.793,52.6365 143.793,54.6365 142.5,56.5C 142.784,54.5853 142.451,52.9187 141.5,51.5 Z"/></g>
<g><path style="opacity:1" fill="#c6c6c6" d="M 131.5,37.5 C 130.666,43.6696 130.666,49.6696 131.5,55.5C 131.44,56.0431 131.107,56.3764 130.5,56.5C 129.16,49.9516 129.494,43.6182 131.5,37.5 Z"/></g>
<g><path style="opacity:1" fill="#b0b0b0" d="M 144.5,60.5 C 144.33,61.8221 144.663,62.9887 145.5,64C 143.733,66.5444 142.066,69.0444 140.5,71.5C 141.462,67.6052 142.796,63.9385 144.5,60.5 Z"/></g>
<g><path style="opacity:1" fill="#222222" d="M 5.5,73.5 C 17.1667,73.5 28.8333,73.5 40.5,73.5C 40.5,74.5 40.5,75.5 40.5,76.5C 28.8286,76.3335 17.1619,76.5001 5.5,77C 4.61983,78.3561 4.28649,79.8561 4.5,81.5C 3.5,81.5 2.5,81.5 1.5,81.5C 0.7741,77.693 2.10743,75.0263 5.5,73.5 Z"/></g>
<g><path style="opacity:1" fill="#1e1e1e" d="M 176.5,66.5 C 180.503,66.9713 183.669,68.9713 186,72.5C 188.393,75.9522 190.226,79.6189 191.5,83.5C 190.325,83.719 189.325,83.3857 188.5,82.5C 186.25,78.3318 183.75,74.3318 181,70.5C 179.989,69.6634 178.822,69.33 177.5,69.5C 177.5,70.5 177.5,71.5 177.5,72.5C 176.5,72.5 175.5,72.5 174.5,72.5C 174.259,70.1137 174.925,68.1137 176.5,66.5 Z"/></g>
<g><path style="opacity:1" fill="#666666" d="M 347.5,79.5 C 349.213,80.6354 349.88,82.302 349.5,84.5C 348.463,83.0697 347.796,81.403 347.5,79.5 Z"/></g>
<g><path style="opacity:1" fill="#606060" d="M 393.5,81.5 C 390.833,81.8333 388.167,82.1667 385.5,82.5C 388.04,80.5873 390.707,80.254 393.5,81.5 Z"/></g>
<g><path style="opacity:1" fill="#191919" d="M 385.5,82.5 C 388.167,82.1667 390.833,81.8333 393.5,81.5C 394.613,82.9464 394.78,84.6131 394,86.5C 386.099,98.402 376.766,109.069 366,118.5C 364.19,123.429 362.69,128.429 361.5,133.5C 360.33,135.65 359.33,137.984 358.5,140.5C 360.733,141.016 362.4,140.016 363.5,137.5C 370.295,131.875 376.962,126.042 383.5,120C 384.448,119.517 385.448,119.351 386.5,119.5C 386.649,120.552 386.483,121.552 386,122.5C 379.317,128.518 373.317,135.185 368,142.5C 366.708,143.791 365.542,143.791 364.5,142.5C 365.29,141.206 366.29,140.039 367.5,139C 365.228,139.077 363.562,140.243 362.5,142.5C 360.385,144.891 357.719,146.224 354.5,146.5C 355.79,139.855 357.79,133.355 360.5,127C 359.601,125.764 358.434,124.93 357,124.5C 353.211,125.562 349.377,125.729 345.5,125C 344.424,123.274 344.257,121.441 345,119.5C 347.667,116.833 350.333,114.167 353,111.5C 353.903,107.967 353.57,104.633 352,101.5C 344.036,106.134 337.37,112.134 332,119.5C 331.585,123.848 331.751,128.181 332.5,132.5C 326.867,128.348 322.367,123.014 319,116.5C 314.277,107.817 310.444,98.8171 307.5,89.5C 307.824,87.4311 308.658,87.0977 310,88.5C 313.968,101.435 319.801,113.435 327.5,124.5C 327.783,125.289 328.283,125.956 329,126.5C 329.495,124.527 329.662,122.527 329.5,120.5C 331.735,114.741 335.401,109.908 340.5,106C 344.088,103.623 347.588,101.123 351,98.5C 350.907,93.8244 350.407,89.1578 349.5,84.5C 349.88,82.302 349.213,80.6354 347.5,79.5C 342.642,72.2592 339.975,64.2592 339.5,55.5C 341.39,55.2965 342.89,55.9632 344,57.5C 347.587,65.1764 350.254,73.1764 352,81.5C 354.828,85.1748 358.328,87.8415 362.5,89.5C 362.56,90.0431 362.893,90.3764 363.5,90.5C 364.48,87.9135 364.813,85.2469 364.5,82.5C 365.369,71.0215 367.202,59.6882 370,48.5C 370.906,45.3145 372.739,42.9812 375.5,41.5C 377.029,41.5288 378.196,42.1955 379,43.5C 380.043,48.4331 380.543,53.4331 380.5,58.5C 379.527,67.5302 378.36,76.5302 377,85.5C 379.69,84.0708 382.523,83.0708 385.5,82.5 Z"/></g>
<g><path style="opacity:1" fill="#6e6e6e" d="M 364.5,82.5 C 364.813,85.2469 364.48,87.9135 363.5,90.5C 362.893,90.3764 362.56,90.0431 362.5,89.5C 363.167,87.1667 363.833,84.8333 364.5,82.5 Z"/></g>
<g><path style="opacity:1" fill="#dfdfdf" d="M 352.5,86.5 C 355.137,88.491 357.804,90.491 360.5,92.5C 358.807,94.0267 356.973,95.3601 355,96.5C 353.755,93.3209 352.922,89.9876 352.5,86.5 Z"/></g>
<g><path style="opacity:1" fill="#e8e8e8" d="M 388.5,83.5 C 392.195,82.8738 393.029,83.8738 391,86.5C 384.083,96.0879 376.416,105.088 368,113.5C 370.205,105.013 372.871,96.6796 376,88.5C 380.403,87.2024 384.57,85.5357 388.5,83.5 Z"/></g>
<g><path style="opacity:1" fill="#808080" d="M 342.5,61.5 C 344.956,64.3674 346.123,67.7008 346,71.5C 343.965,68.4388 342.799,65.1055 342.5,61.5 Z"/></g>
<g><path style="opacity:1" fill="#a5a5a5" d="M 373.5,48.5 C 373.59,51.1522 372.924,53.4855 371.5,55.5C 371.41,52.8478 372.076,50.5145 373.5,48.5 Z"/></g>
<g><path style="opacity:1" fill="#e9e9e9" d="M 371.5,55.5 C 372.924,53.4855 373.59,51.1522 373.5,48.5C 373.533,45.9029 374.533,44.9029 376.5,45.5C 378.024,48.8017 378.691,52.3017 378.5,56C 377.715,66.4229 375.715,76.5896 372.5,86.5C 370.587,87.373 368.753,88.373 367,89.5C 367.248,77.8913 368.748,66.5579 371.5,55.5 Z"/></g>
<g><path style="opacity:1" fill="#e8e8e8" d="M 370.5,93.5 C 370.727,95.9328 369.727,97.5994 367.5,98.5C 366.549,97.0813 366.216,95.4147 366.5,93.5C 367.833,93.5 369.167,93.5 370.5,93.5 Z"/></g>
<g><path style="opacity:1" fill="#797979" d="M 132.5,95.5 C 134.167,95.5 135.833,95.5 137.5,95.5C 137.737,96.791 137.404,97.791 136.5,98.5C 135.552,97.0221 134.219,96.0221 132.5,95.5 Z"/></g>
<g><path style="opacity:1" fill="#eaeaea" d="M 361.5,95.5 C 362.468,97.6074 362.802,99.9407 362.5,102.5C 356.566,110.439 354.566,109.106 356.5,98.5C 358.029,97.2371 359.695,96.2371 361.5,95.5 Z"/></g>
<g><path style="opacity:1" fill="#7d7d7d" d="M 370.5,93.5 C 369.167,93.5 367.833,93.5 366.5,93.5C 366.216,95.4147 366.549,97.0813 367.5,98.5C 367.217,99.2891 366.717,99.9558 366,100.5C 365.503,97.854 365.336,95.1873 365.5,92.5C 367.415,92.2155 369.081,92.5489 370.5,93.5 Z"/></g>
<g><path style="opacity:1" fill="#666666" d="M 361.5,95.5 C 361.56,94.9569 361.893,94.6236 362.5,94.5C 363.8,97.3092 363.8,99.9759 362.5,102.5C 362.802,99.9407 362.468,97.6074 361.5,95.5 Z"/></g>
<g><path style="opacity:1" fill="#ababab" d="M 139.5,100.5 C 139.59,103.152 138.924,105.485 137.5,107.5C 137.41,104.848 138.076,102.515 139.5,100.5 Z"/></g>
<g><path style="opacity:1" fill="#a0a0a0" d="M 367.5,101.5 C 368.097,101.735 368.43,102.235 368.5,103C 366.923,107.476 365.423,111.976 364,116.5C 363.469,110.992 364.636,105.992 367.5,101.5 Z"/></g>
<g><path style="opacity:1" fill="#dadada" d="M 360.5,108.5 C 361.482,111.962 361.815,115.629 361.5,119.5C 360.5,119.5 359.5,119.5 358.5,119.5C 357.671,116.531 357.505,113.531 358,110.5C 358.995,109.934 359.828,109.267 360.5,108.5 Z"/></g>
<g><path style="opacity:1" fill="#e0e0e0" d="M 353.5,114.5 C 355.982,116.102 356.815,118.435 356,121.5C 353.435,123.179 350.602,123.846 347.5,123.5C 347.351,122.448 347.517,121.448 348,120.5C 350.04,118.63 351.873,116.63 353.5,114.5 Z"/></g>
<g><path style="opacity:1" fill="#a6a6a6" d="M 134.5,116.5 C 134.59,119.152 133.924,121.485 132.5,123.5C 132.41,120.848 133.076,118.515 134.5,116.5 Z"/></g>
<g><path style="opacity:1" fill="#7f7f7f" d="M 329.5,120.5 C 329.662,122.527 329.495,124.527 329,126.5C 328.283,125.956 327.783,125.289 327.5,124.5C 328.167,123.167 328.833,121.833 329.5,120.5 Z"/></g>
<g><path style="opacity:1" fill="#737373" d="M 132.5,123.5 C 132.5,125.5 132.5,127.5 132.5,129.5C 133.5,129.5 134.5,129.5 135.5,129.5C 134.432,130.434 133.099,130.768 131.5,130.5C 131.198,127.941 131.532,125.607 132.5,123.5 Z"/></g>
<g><path style="opacity:1" fill="#c0c0c0" d="M 361.5,133.5 C 361.157,135.483 361.824,136.817 363.5,137.5C 362.4,140.016 360.733,141.016 358.5,140.5C 359.33,137.984 360.33,135.65 361.5,133.5 Z"/></g>
<g><path style="opacity:1" fill="#a6a6a6" d="M 364.5,142.5 C 363.833,142.5 363.167,142.5 362.5,142.5C 363.562,140.243 365.228,139.077 367.5,139C 366.29,140.039 365.29,141.206 364.5,142.5 Z"/></g>
<g><path style="opacity:1" fill="#a6a6a6" d="M 28.5,148.5 C 28.5905,151.152 27.9238,153.485 26.5,155.5C 26.4095,152.848 27.0762,150.515 28.5,148.5 Z"/></g>
<g><path style="opacity:1" fill="#646464" d="M 445.5,151.5 C 448.203,153.11 451.203,154.11 454.5,154.5C 451.167,154.5 447.833,154.5 444.5,154.5C 444.263,153.209 444.596,152.209 445.5,151.5 Z"/></g>
<g><path style="opacity:1" fill="#1f1f1f" d="M 445.5,151.5 C 448.85,151.335 452.183,151.502 455.5,152C 461.17,154.833 466.503,158.166 471.5,162C 472.961,166.307 471.295,168.141 466.5,167.5C 466.36,165.876 467.027,164.71 468.5,164C 464.324,160.081 459.657,156.914 454.5,154.5C 451.203,154.11 448.203,153.11 445.5,151.5 Z"/></g>
<g><path style="opacity:1" fill="#a6a6a6" d="M 49.5,162.5 C 49.5905,165.152 48.9238,167.485 47.5,169.5C 47.4095,166.848 48.0762,164.515 49.5,162.5 Z"/></g>
<g><path style="opacity:1" fill="#202020" d="M 133.5,166.5 C 134.167,166.833 134.833,167.167 135.5,167.5C 135.297,169.044 134.63,170.378 133.5,171.5C 134.624,172.859 135.958,173.859 137.5,174.5C 134.941,174.198 132.607,174.532 130.5,175.5C 129.833,176.833 128.833,177.833 127.5,178.5C 127.5,177.5 127.5,176.5 127.5,175.5C 130.186,174.012 129.853,173.345 126.5,173.5C 111.158,172.223 95.8242,172.223 80.5,173.5C 79.7611,173.631 79.0944,173.464 78.5,173C 80.7226,172.434 82.7226,171.6 84.5,170.5C 99.5138,168.963 114.514,169.297 129.5,171.5C 131.071,170.025 132.405,168.358 133.5,166.5 Z"/></g>
<g><path style="opacity:1" fill="#f9f9f9" d="M 126.5,173.5 C 126.833,174.167 127.167,174.833 127.5,175.5C 118.244,186.712 106.41,193.379 92,195.5C 84.4372,195.47 77.9372,192.803 72.5,187.5C 70.7751,185.043 70.2751,182.377 71,179.5C 73.8426,176.837 77.0093,174.837 80.5,173.5C 95.8242,172.223 111.158,172.223 126.5,173.5 Z"/></g>
<g><path style="opacity:1" fill="#6d6d6d" d="M 126.5,173.5 C 129.853,173.345 130.186,174.012 127.5,175.5C 127.167,174.833 126.833,174.167 126.5,173.5 Z"/></g>
<g><path style="opacity:1" fill="#1a1a1a" d="M 284.5,184.5 C 283.082,186.308 281.082,186.975 278.5,186.5C 273.232,185.432 268.232,183.598 263.5,181C 262.663,179.989 262.33,178.822 262.5,177.5C 264.5,177.5 266.5,177.5 268.5,177.5C 268.137,179.911 269.137,181.411 271.5,182C 275.728,183.412 280.061,184.246 284.5,184.5 Z"/></g>
<g><path style="opacity:1" fill="#202020" d="M 130.5,175.5 C 132.607,174.532 134.941,174.198 137.5,174.5C 143.314,175.827 148.981,177.66 154.5,180C 169.167,187.667 183.833,195.333 198.5,203C 213.111,209.43 228.111,215.096 243.5,220C 244.973,220.71 245.64,221.876 245.5,223.5C 244.167,223.5 242.833,223.5 241.5,223.5C 227.928,217.917 214.261,212.417 200.5,207C 184.531,198.682 168.531,190.348 152.5,182C 145.455,178.905 138.122,176.738 130.5,175.5 Z"/></g>
<g><path style="opacity:1" fill="#616161" d="M 284.5,184.5 C 285.404,185.209 285.737,186.209 285.5,187.5C 282.941,187.802 280.607,187.468 278.5,186.5C 281.082,186.975 283.082,186.308 284.5,184.5 Z"/></g>
<g><path style="opacity:1" fill="#1f1f1f" d="M 84.5,170.5 C 82.7226,171.6 80.7226,172.434 78.5,173C 79.0944,173.464 79.7611,173.631 80.5,173.5C 77.0093,174.837 73.8426,176.837 71,179.5C 70.2751,182.377 70.7751,185.043 72.5,187.5C 77.9372,192.803 84.4372,195.47 92,195.5C 106.41,193.379 118.244,186.712 127.5,175.5C 127.5,176.5 127.5,177.5 127.5,178.5C 121.379,186.242 113.712,192.075 104.5,196C 90.6225,201.572 78.7892,198.739 69,187.5C 67.2722,184.241 67.1056,180.908 68.5,177.5C 73.087,173.542 78.4203,171.208 84.5,170.5 Z"/></g>
</svg>
